<?xml version="1.0" encoding="UTF-8"?>
<svg id="Layer_1" xmlns="http://www.w3.org/2000/svg" version="1.1" viewBox="0 0 215.4 215.4">
  <!-- Generator: Adobe Illustrator 29.8.3, SVG Export Plug-In . SVG Version: 2.1.1 Build 3)  -->
  <defs>
    <style>
      .st0 {
        fill: #26231e;
      }

      .st1 {
        fill: #fff;
      }

      .st2 {
        fill: #ee7520;
      }
    </style>
  </defs>
  <rect class="st0" x="1.3" y="1.3" width="212.6" height="212.6" rx="8.5" ry="8.5"/>
  <g>
    <g>
      <g>
        <g>
          <path class="st1" d="M187.7,22.7v1.1h-1.5v4.5h-1.4v-4.5h-1.5v-1.1h4.4Z"/>
          <path class="st1" d="M196.1,22.7v5.6h-1.4v-3.4l-1.3,3.4h-1.1l-1.3-3.4v3.4h-1.4v-5.6h1.6l1.6,3.9,1.6-3.9h1.6Z"/>
        </g>
        <g>
          <path class="st2" d="M64.9,67.5l-12.5-7.9c-2.1.8-4.3,1.2-6.6,1.2-10.5,0-19.1-8.6-19.1-19.1s8.6-19.1,19.1-19.1,19.1,8.6,19.1,19.1v25.8ZM52.9,52.1l5.4,3.4v-13.8c0-6.9-5.6-12.5-12.5-12.5s-12.5,5.6-12.5,12.5,5.6,12.5,12.5,12.5,3.7-.4,5.4-1.3l1.7-.8Z"/>
          <path class="st1" d="M76,61.7c-1.8-.8-3.2-1.9-4.2-3.3-1-1.4-1.6-3-1.7-4.7h6.1c.1,1.2.7,2.2,1.7,3,1.1.8,2.4,1.2,4,1.2s3-.3,3.9-1c.9-.6,1.4-1.5,1.4-2.5s-.5-1.9-1.5-2.4c-1-.5-2.6-1.1-4.9-1.7-2.2-.6-3.9-1.2-5.3-1.7-1.4-.6-2.5-1.4-3.5-2.5-1-1.1-1.5-2.7-1.5-4.5s.5-2.9,1.4-4.2c.9-1.3,2.2-2.3,3.9-3,1.7-.7,3.6-1.1,5.8-1.1,3.3,0,5.9.8,7.9,2.5,2,1.6,3.1,3.9,3.2,6.7h-5.9c-.1-1.3-.6-2.3-1.6-3.1-.9-.8-2.2-1.1-3.8-1.1s-2.8.3-3.6.9c-.8.6-1.2,1.4-1.2,2.3s.3,1.4.8,1.9c.6.5,1.2.9,2,1.2.8.3,2,.7,3.5,1.1,2.1.6,3.8,1.1,5.1,1.7,1.3.6,2.5,1.4,3.5,2.5,1,1.1,1.5,2.6,1.5,4.4,0,1.6-.5,3.1-1.4,4.4-.9,1.3-2.2,2.3-3.8,3-1.6.7-3.6,1.1-5.8,1.1s-4.3-.4-6.1-1.2Z"/>
          <path class="st1" d="M102.5,61.7c-1.8-.8-3.2-1.9-4.2-3.3-1-1.4-1.6-3-1.7-4.7h6.1c.1,1.2.7,2.2,1.7,3,1.1.8,2.4,1.2,4,1.2s3-.3,3.9-1c.9-.6,1.4-1.5,1.4-2.5s-.5-1.9-1.5-2.4c-1-.5-2.6-1.1-4.9-1.7-2.2-.6-3.9-1.2-5.3-1.7-1.4-.6-2.5-1.4-3.5-2.5-1-1.1-1.5-2.7-1.5-4.5s.5-2.9,1.4-4.2c.9-1.3,2.2-2.3,3.9-3,1.7-.7,3.6-1.1,5.8-1.1,3.3,0,5.9.8,7.9,2.5,2,1.6,3.1,3.9,3.2,6.7h-5.9c-.1-1.3-.6-2.3-1.6-3.1-.9-.8-2.2-1.1-3.8-1.1s-2.8.3-3.6.9c-.8.6-1.2,1.4-1.2,2.3s.3,1.4.8,1.9c.6.5,1.2.9,2,1.2.8.3,2,.7,3.5,1.1,2.1.6,3.8,1.1,5.1,1.7,1.3.6,2.5,1.4,3.5,2.5,1,1.1,1.5,2.6,1.5,4.4,0,1.6-.5,3.1-1.4,4.4-.9,1.3-2.2,2.3-3.8,3-1.6.7-3.6,1.1-5.8,1.1s-4.3-.4-6.1-1.2Z"/>
          <path class="st1" d="M124.9,28.9c-.7-.7-1.1-1.6-1.1-2.7s.4-2,1.1-2.7c.7-.7,1.6-1.1,2.7-1.1s1.9.4,2.7,1.1c.7.7,1.1,1.6,1.1,2.7s-.4,2-1.1,2.7c-.7.7-1.6,1.1-2.7,1.1s-2-.4-2.7-1.1ZM130.5,33.8v28.7h-5.9v-28.7h5.9Z"/>
          <path class="st1" d="M141.4,61.7c-1.8-.8-3.2-1.9-4.2-3.3-1-1.4-1.6-3-1.7-4.7h6.1c.1,1.2.7,2.2,1.7,3,1.1.8,2.4,1.2,4,1.2s3-.3,3.9-1c.9-.6,1.4-1.5,1.4-2.5s-.5-1.9-1.5-2.4c-1-.5-2.6-1.1-4.9-1.7-2.2-.6-3.9-1.2-5.3-1.7-1.4-.6-2.5-1.4-3.5-2.5-1-1.1-1.5-2.7-1.5-4.5s.5-2.9,1.4-4.2c.9-1.3,2.2-2.3,3.9-3,1.7-.7,3.6-1.1,5.8-1.1,3.3,0,5.9.8,7.9,2.5,2,1.6,3.1,3.9,3.2,6.7h-5.9c-.1-1.3-.6-2.3-1.6-3.1-.9-.8-2.2-1.1-3.8-1.1s-2.8.3-3.6.9c-.8.6-1.2,1.4-1.2,2.3s.3,1.4.8,1.9c.6.5,1.2.9,2,1.2.8.3,2,.7,3.5,1.1,2.1.6,3.8,1.1,5.1,1.7,1.3.6,2.5,1.4,3.5,2.5,1,1.1,1.5,2.6,1.5,4.4,0,1.6-.5,3.1-1.4,4.4-.9,1.3-2.2,2.3-3.8,3-1.6.7-3.6,1.1-5.8,1.1s-4.3-.4-6.1-1.2Z"/>
          <path class="st1" d="M170.4,38.6v15.9c0,1.1.3,1.8.8,2.3.5.5,1.4.7,2.6.7h3.6v4.9h-4.7c-2.7,0-4.7-.6-6.1-1.9-1.4-1.2-2.1-3.3-2.1-6.1v-15.9h-3.4v-4.8h3.4v-7.1h6v7.1h7v4.8h-7Z"/>
        </g>
      </g>
      <g>
        <path class="st1" d="M31.8,185.1h7.8v-10.4h4.9v10.4h8.2v-11.7h5.1v18h-31v-18h5.1v11.7Z"/>
        <path class="st1" d="M34.1,167.2c-2.4-1.4-4.3-3.3-5.6-5.6-1.3-2.4-2-5-2-8s.9-6.5,2.7-9.1c1.8-2.6,4.2-4.4,7.4-5.5v7.1c-1.5.7-2.6,1.7-3.3,3-.7,1.3-1.1,2.8-1.1,4.5s.4,3.4,1.3,4.8c.8,1.4,2,2.5,3.6,3.3,1.5.8,3.3,1.2,5.4,1.2s3.8-.4,5.4-1.2c1.6-.8,2.7-1.9,3.6-3.3s1.3-3,1.3-4.8-.4-3.2-1.1-4.5c-.8-1.3-1.9-2.3-3.3-3v-7.1c3.2,1,5.6,2.8,7.4,5.4,1.8,2.6,2.6,5.6,2.6,9.1s-.7,5.6-2,8c-1.3,2.4-3.2,4.3-5.6,5.6-2.4,1.4-5.1,2.1-8.2,2.1s-5.8-.7-8.2-2.1Z"/>
        <path class="st1" d="M26.8,108.1h30.9v6.2h-13.2v13.3h13.2v6.2h-30.9v-6.2h12.7v-13.3h-12.7v-6.2Z"/>
        <path class="st1" d="M56,95.6c-1.4,2.4-3.2,4.3-5.7,5.8-2.4,1.4-5.1,2.1-8.2,2.1s-5.7-.7-8.1-2.1c-2.4-1.4-4.3-3.3-5.7-5.8-1.4-2.4-2-5.1-2-8s.7-5.6,2-8c1.4-2.4,3.2-4.3,5.7-5.7,2.4-1.4,5.1-2.1,8.1-2.1s5.8.7,8.2,2.1c2.4,1.4,4.3,3.3,5.7,5.7,1.4,2.4,2,5.1,2,8s-.7,5.6-2,8ZM51.3,82.7c-.8-1.4-2-2.5-3.6-3.3-1.6-.8-3.4-1.2-5.5-1.2s-3.9.4-5.4,1.2c-1.6.8-2.7,1.9-3.6,3.3-.8,1.4-1.2,3.1-1.2,4.9s.4,3.5,1.2,4.9c.8,1.4,2,2.5,3.6,3.3,1.6.8,3.4,1.2,5.4,1.2s3.9-.4,5.5-1.2c1.6-.8,2.8-1.9,3.6-3.3s1.3-3.1,1.3-4.9-.4-3.5-1.3-4.9Z"/>
      </g>
    </g>
    <g>
      <g>
        <path class="st1" d="M73.2,78l.8-.9c.7.6,1.4.9,2.3.9s1.3-.4,1.3-.9h0c0-.5-.3-.8-1.6-1.1-1.5-.4-2.4-.8-2.4-2.2h0c0-1.3,1-2.1,2.5-2.1s1.9.3,2.6.9l-.7,1c-.6-.5-1.3-.7-2-.7s-1.2.4-1.2.9h0c0,.6.3.8,1.7,1.2,1.5.4,2.3.9,2.3,2.1h0c0,1.4-1.1,2.2-2.6,2.2s-2.1-.4-3-1.2Z"/>
        <path class="st1" d="M81.1,71.8h1.3l2.2,3.4,2.2-3.4h1.3v7.2h-1.3v-5.2l-2.3,3.4h0l-2.3-3.4v5.1h-1.2v-7.2Z"/>
        <path class="st1" d="M93.3,71.8h1.2l3.2,7.3h-1.3l-.7-1.7h-3.4l-.7,1.7h-1.3l3.2-7.3ZM95.2,76.1l-1.2-2.9-1.2,2.9h2.5Z"/>
        <path class="st1" d="M99.7,71.8h3.2c.9,0,1.6.3,2.1.7.4.4.6.9.6,1.6h0c0,1.2-.7,1.9-1.7,2.2l1.9,2.7h-1.5l-1.8-2.5h-1.6v2.5h-1.3v-7.2ZM102.8,75.4c.9,0,1.5-.5,1.5-1.2h0c0-.8-.6-1.2-1.5-1.2h-1.8v2.4h1.9Z"/>
        <path class="st1" d="M109.7,73h-2.3v-1.2h5.9v1.2h-2.3v6h-1.3v-6Z"/>
        <path class="st1" d="M119.2,71.8h3.2c.8,0,1.5.2,1.9.6s.5.7.5,1.2h0c0,.9-.5,1.3-1,1.6.8.3,1.4.8,1.4,1.8h0c0,1.3-1.1,2-2.7,2h-3.3v-7.2ZM123.5,73.8c0-.6-.5-.9-1.3-.9h-1.8v1.9h1.7c.8,0,1.4-.3,1.4-1h0ZM122.4,75.9h-2v2h2.1c.9,0,1.4-.3,1.4-1h0c0-.6-.5-1-1.5-1Z"/>
        <path class="st1" d="M129.9,71.8h1.2l3.2,7.3h-1.3l-.7-1.7h-3.4l-.7,1.7h-1.3l3.2-7.3ZM131.7,76.1l-1.2-2.9-1.2,2.9h2.5Z"/>
        <path class="st1" d="M136.3,71.8h3.2c.9,0,1.6.3,2.1.7.4.4.6.9.6,1.6h0c0,1.2-.7,1.9-1.7,2.2l1.9,2.7h-1.5l-1.8-2.5h-1.6v2.5h-1.3v-7.2ZM139.4,75.4c.9,0,1.5-.5,1.5-1.2h0c0-.8-.6-1.2-1.5-1.2h-1.8v2.4h1.9Z"/>
        <path class="st1" d="M144.5,71.8h3.2c.9,0,1.6.3,2.1.7.4.4.6.9.6,1.6h0c0,1.2-.7,1.9-1.7,2.2l1.9,2.7h-1.5l-1.8-2.5h-1.6v2.5h-1.3v-7.2ZM147.6,75.4c.9,0,1.5-.5,1.5-1.2h0c0-.8-.6-1.2-1.5-1.2h-1.8v2.4h1.9Z"/>
        <path class="st1" d="M152.8,71.8h1.3v7.2h-1.3v-7.2Z"/>
        <path class="st1" d="M156.7,71.8h5.3v1.1h-4.1v1.9h3.6v1.1h-3.6v1.9h4.1v1.1h-5.4v-7.2Z"/>
        <path class="st1" d="M164.4,71.8h3.2c.9,0,1.6.3,2.1.7.4.4.6.9.6,1.6h0c0,1.2-.7,1.9-1.7,2.2l1.9,2.7h-1.5l-1.8-2.5h-1.6v2.5h-1.3v-7.2ZM167.5,75.4c.9,0,1.5-.5,1.5-1.2h0c0-.8-.6-1.2-1.5-1.2h-1.8v2.4h1.9Z"/>
      </g>
      <path class="st1" d="M172.9,72.2h-.7v-.4h1.7v.4h-.7v1.8h-.4v-1.8ZM174.4,71.8h.4l.6,1,.6-1h.4v2.2h-.4v-1.5l-.7,1h0l-.7-1v1.5h-.4v-2.2Z"/>
    </g>
    <g>
      <rect class="st2" x="73.4" y="88.4" width="3.6" height="7.1"/>
      <rect class="st2" x="73.4" y="95.5" width="3.6" height="7.1"/>
      <rect class="st2" x="73.4" y="102.6" width="3.6" height="10.7"/>
      <rect class="st2" x="73.4" y="116.8" width="3.6" height="3.6"/>
      <rect class="st2" x="73.4" y="124" width="3.6" height="3.6"/>
      <rect class="st2" x="73.4" y="131.1" width="3.6" height="3.6"/>
      <rect class="st2" x="73.4" y="152.4" width="3.6" height="3.6"/>
      <rect class="st2" x="73.4" y="166.7" width="3.6" height="24.9"/>
      <rect class="st2" x="77" y="88.4" width="3.6" height="3.6"/>
      <rect class="st2" x="77" y="109.7" width="3.6" height="3.6"/>
      <rect class="st2" x="77" y="138.2" width="3.6" height="3.6"/>
      <rect class="st2" x="77" y="159.5" width="3.6" height="3.6"/>
      <rect class="st2" x="77" y="166.7" width="3.6" height="3.6"/>
      <rect class="st2" x="77" y="188" width="3.6" height="3.6"/>
      <rect class="st2" x="80.5" y="88.4" width="3.6" height="3.6"/>
      <rect class="st2" x="80.5" y="95.5" width="3.6" height="7.1"/>
      <rect class="st2" x="80.5" y="102.6" width="3.6" height="3.6"/>
      <rect class="st2" x="80.5" y="109.7" width="3.6" height="3.6"/>
      <rect class="st2" x="80.5" y="116.8" width="3.6" height="3.6"/>
      <rect class="st2" x="80.5" y="124" width="3.6" height="10.7"/>
      <rect class="st2" x="80.5" y="138.2" width="3.6" height="10.7"/>
      <rect class="st2" x="80.5" y="159.5" width="3.6" height="3.6"/>
      <rect class="st2" x="80.5" y="166.7" width="3.6" height="3.6"/>
      <rect class="st2" x="80.5" y="173.8" width="3.6" height="10.7"/>
      <rect class="st2" x="80.5" y="188" width="3.6" height="3.6"/>
      <rect class="st2" x="84.1" y="88.4" width="3.6" height="3.6"/>
      <rect class="st2" x="84.1" y="95.5" width="3.6" height="7.1"/>
      <rect class="st2" x="84.1" y="102.6" width="3.6" height="3.6"/>
      <rect class="st2" x="84.1" y="109.7" width="3.6" height="3.6"/>
      <rect class="st2" x="84.1" y="116.8" width="3.6" height="3.6"/>
      <rect class="st2" x="84.1" y="127.5" width="3.6" height="3.6"/>
      <rect class="st2" x="84.1" y="145.3" width="3.6" height="3.6"/>
      <rect class="st2" x="84.1" y="152.4" width="3.6" height="3.6"/>
      <rect class="st2" x="84.1" y="159.5" width="3.6" height="3.6"/>
      <rect class="st2" x="84.1" y="166.7" width="3.6" height="3.6"/>
      <rect class="st2" x="84.1" y="173.8" width="3.6" height="10.7"/>
      <rect class="st2" x="84.1" y="188" width="3.6" height="3.6"/>
      <rect class="st2" x="87.7" y="88.4" width="3.6" height="3.6"/>
      <rect class="st2" x="87.7" y="95.5" width="3.6" height="7.1"/>
      <rect class="st2" x="87.7" y="102.6" width="3.6" height="3.6"/>
      <rect class="st2" x="87.7" y="109.7" width="3.6" height="3.6"/>
      <rect class="st2" x="87.7" y="120.4" width="3.6" height="10.7"/>
      <rect class="st2" x="87.7" y="138.2" width="3.6" height="3.6"/>
      <rect class="st2" x="87.7" y="148.9" width="3.6" height="7.1"/>
      <rect class="st2" x="87.7" y="166.7" width="3.6" height="3.6"/>
      <rect class="st2" x="87.7" y="173.8" width="3.6" height="10.7"/>
      <rect class="st2" x="87.7" y="188" width="3.6" height="3.6"/>
      <rect class="st2" x="91.2" y="88.4" width="3.6" height="3.6"/>
      <rect class="st2" x="91.2" y="109.7" width="3.6" height="3.6"/>
      <rect class="st2" x="91.2" y="116.8" width="3.6" height="7.1"/>
      <rect class="st2" x="91.2" y="131.1" width="3.6" height="10.7"/>
      <rect class="st2" x="91.2" y="145.3" width="3.6" height="3.6"/>
      <rect class="st2" x="91.2" y="166.7" width="3.6" height="3.6"/>
      <rect class="st2" x="91.2" y="188" width="3.6" height="3.6"/>
      <rect class="st2" x="94.8" y="88.4" width="3.6" height="7.1"/>
      <rect class="st2" x="94.8" y="95.5" width="3.6" height="7.1"/>
      <rect class="st2" x="94.8" y="102.6" width="3.6" height="10.7"/>
      <rect class="st2" x="94.8" y="116.8" width="3.6" height="3.6"/>
      <rect class="st2" x="94.8" y="124" width="3.6" height="3.6"/>
      <rect class="st2" x="94.8" y="131.1" width="3.6" height="3.6"/>
      <rect class="st2" x="94.8" y="138.2" width="3.6" height="3.6"/>
      <rect class="st2" x="94.8" y="145.3" width="3.6" height="3.6"/>
      <rect class="st2" x="94.8" y="152.4" width="3.6" height="3.6"/>
      <rect class="st2" x="94.8" y="159.5" width="3.6" height="3.6"/>
      <rect class="st2" x="94.8" y="166.7" width="3.6" height="24.9"/>
      <rect class="st2" x="98.3" y="116.8" width="3.6" height="10.7"/>
      <rect class="st2" x="98.3" y="148.9" width="3.6" height="3.6"/>
      <rect class="st2" x="98.3" y="156" width="3.6" height="7.1"/>
      <rect class="st2" x="101.9" y="88.4" width="3.6" height="7.1"/>
      <rect class="st2" x="101.9" y="99.1" width="3.6" height="3.6"/>
      <rect class="st2" x="101.9" y="109.7" width="3.6" height="7.1"/>
      <rect class="st2" x="101.9" y="134.6" width="3.6" height="3.6"/>
      <rect class="st2" x="101.9" y="141.8" width="3.6" height="3.6"/>
      <rect class="st2" x="101.9" y="159.5" width="3.6" height="14.2"/>
      <rect class="st2" x="101.9" y="177.3" width="3.6" height="7.1"/>
      <rect class="st2" x="101.9" y="188" width="3.6" height="3.6"/>
      <rect class="st2" x="105.4" y="88.4" width="3.6" height="3.6"/>
      <rect class="st2" x="105.4" y="95.5" width="3.6" height="7.1"/>
      <rect class="st2" x="105.4" y="113.3" width="3.6" height="7.1"/>
      <rect class="st2" x="105.4" y="127.5" width="3.6" height="7.1"/>
      <rect class="st2" x="105.4" y="145.3" width="3.6" height="3.6"/>
      <rect class="st2" x="105.4" y="152.4" width="3.6" height="7.1"/>
      <rect class="st2" x="105.4" y="163.1" width="3.6" height="3.6"/>
      <rect class="st2" x="105.4" y="173.8" width="3.6" height="17.8"/>
      <rect class="st2" x="109" y="91.9" width="3.6" height="3.6"/>
      <rect class="st2" x="109" y="95.5" width="3.6" height="3.6"/>
      <rect class="st2" x="109" y="106.2" width="3.6" height="7.1"/>
      <rect class="st2" x="109" y="124" width="3.6" height="7.1"/>
      <rect class="st2" x="109" y="138.2" width="3.6" height="10.7"/>
      <rect class="st2" x="109" y="152.4" width="3.6" height="7.1"/>
      <rect class="st2" x="109" y="163.1" width="3.6" height="3.6"/>
      <rect class="st2" x="109" y="170.2" width="3.6" height="7.1"/>
      <rect class="st2" x="109" y="180.9" width="3.6" height="10.7"/>
      <rect class="st2" x="112.6" y="95.5" width="3.6" height="7.1"/>
      <rect class="st2" x="112.6" y="106.2" width="3.6" height="3.6"/>
      <rect class="st2" x="112.6" y="116.8" width="3.6" height="3.6"/>
      <rect class="st2" x="112.6" y="124" width="3.6" height="3.6"/>
      <rect class="st2" x="112.6" y="134.6" width="3.6" height="10.7"/>
      <rect class="st2" x="112.6" y="152.4" width="3.6" height="10.7"/>
      <rect class="st2" x="112.6" y="170.2" width="3.6" height="3.6"/>
      <rect class="st2" x="112.6" y="177.3" width="3.6" height="7.1"/>
      <rect class="st2" x="116.1" y="88.4" width="3.6" height="7.1"/>
      <rect class="st2" x="116.1" y="109.7" width="3.6" height="7.1"/>
      <rect class="st2" x="116.1" y="120.4" width="3.6" height="3.6"/>
      <rect class="st2" x="116.1" y="127.5" width="3.6" height="3.6"/>
      <rect class="st2" x="116.1" y="138.2" width="3.6" height="3.6"/>
      <rect class="st2" x="116.1" y="145.3" width="3.6" height="3.6"/>
      <rect class="st2" x="116.1" y="159.5" width="3.6" height="3.6"/>
      <rect class="st2" x="116.1" y="166.7" width="3.6" height="3.6"/>
      <rect class="st2" x="116.1" y="180.9" width="3.6" height="10.7"/>
      <rect class="st2" x="119.7" y="95.5" width="3.6" height="3.6"/>
      <rect class="st2" x="119.7" y="102.6" width="3.6" height="3.6"/>
      <rect class="st2" x="119.7" y="113.3" width="3.6" height="7.1"/>
      <rect class="st2" x="119.7" y="127.5" width="3.6" height="3.6"/>
      <rect class="st2" x="119.7" y="134.6" width="3.6" height="3.6"/>
      <rect class="st2" x="119.7" y="141.8" width="3.6" height="3.6"/>
      <rect class="st2" x="119.7" y="148.9" width="3.6" height="3.6"/>
      <rect class="st2" x="119.7" y="159.5" width="3.6" height="10.7"/>
      <rect class="st2" x="119.7" y="184.4" width="3.6" height="7.1"/>
      <rect class="st2" x="123.2" y="91.9" width="3.6" height="3.6"/>
      <rect class="st2" x="123.2" y="95.5" width="3.6" height="3.6"/>
      <rect class="st2" x="123.2" y="106.2" width="3.6" height="14.2"/>
      <rect class="st2" x="123.2" y="124" width="3.6" height="7.1"/>
      <rect class="st2" x="123.2" y="138.2" width="3.6" height="3.6"/>
      <rect class="st2" x="123.2" y="163.1" width="3.6" height="3.6"/>
      <rect class="st2" x="123.2" y="173.8" width="3.6" height="7.1"/>
      <rect class="st2" x="123.2" y="184.4" width="3.6" height="3.6"/>
      <rect class="st2" x="126.8" y="88.4" width="3.6" height="7.1"/>
      <rect class="st2" x="126.8" y="95.5" width="3.6" height="3.6"/>
      <rect class="st2" x="126.8" y="127.5" width="3.6" height="10.7"/>
      <rect class="st2" x="126.8" y="141.8" width="3.6" height="17.8"/>
      <rect class="st2" x="126.8" y="170.2" width="3.6" height="10.7"/>
      <rect class="st2" x="126.8" y="184.4" width="3.6" height="3.6"/>
      <rect class="st2" x="130.3" y="88.4" width="3.6" height="3.6"/>
      <rect class="st2" x="130.3" y="106.2" width="3.6" height="10.7"/>
      <rect class="st2" x="130.3" y="120.4" width="3.6" height="17.8"/>
      <rect class="st2" x="130.3" y="152.4" width="3.6" height="3.6"/>
      <rect class="st2" x="130.3" y="163.1" width="3.6" height="17.8"/>
      <rect class="st2" x="133.9" y="88.4" width="3.6" height="7.1"/>
      <rect class="st2" x="133.9" y="99.1" width="3.6" height="3.6"/>
      <rect class="st2" x="133.9" y="106.2" width="3.6" height="3.6"/>
      <rect class="st2" x="133.9" y="113.3" width="3.6" height="7.1"/>
      <rect class="st2" x="133.9" y="124" width="3.6" height="3.6"/>
      <rect class="st2" x="133.9" y="131.1" width="3.6" height="10.7"/>
      <rect class="st2" x="133.9" y="148.9" width="3.6" height="3.6"/>
      <rect class="st2" x="133.9" y="156" width="3.6" height="10.7"/>
      <rect class="st2" x="133.9" y="173.8" width="3.6" height="3.6"/>
      <rect class="st2" x="137.5" y="88.4" width="3.6" height="7.1"/>
      <rect class="st2" x="137.5" y="95.5" width="3.6" height="7.1"/>
      <rect class="st2" x="137.5" y="106.2" width="3.6" height="24.9"/>
      <rect class="st2" x="137.5" y="145.3" width="3.6" height="3.6"/>
      <rect class="st2" x="137.5" y="152.4" width="3.6" height="3.6"/>
      <rect class="st2" x="137.5" y="159.5" width="3.6" height="17.8"/>
      <rect class="st2" x="137.5" y="180.9" width="3.6" height="3.6"/>
      <rect class="st2" x="137.5" y="188" width="3.6" height="3.6"/>
      <rect class="st2" x="141" y="88.4" width="3.6" height="3.6"/>
      <rect class="st2" x="141" y="99.1" width="3.6" height="3.6"/>
      <rect class="st2" x="141" y="102.6" width="3.6" height="7.1"/>
      <rect class="st2" x="141" y="113.3" width="3.6" height="10.7"/>
      <rect class="st2" x="141" y="131.1" width="3.6" height="14.2"/>
      <rect class="st2" x="141" y="159.5" width="3.6" height="3.6"/>
      <rect class="st2" x="141" y="166.7" width="3.6" height="3.6"/>
      <rect class="st2" x="141" y="177.3" width="3.6" height="7.1"/>
      <rect class="st2" x="141" y="188" width="3.6" height="3.6"/>
      <rect class="st2" x="144.6" y="88.4" width="3.6" height="3.6"/>
      <rect class="st2" x="144.6" y="95.5" width="3.6" height="3.6"/>
      <rect class="st2" x="144.6" y="106.2" width="3.6" height="10.7"/>
      <rect class="st2" x="144.6" y="120.4" width="3.6" height="10.7"/>
      <rect class="st2" x="144.6" y="134.6" width="3.6" height="3.6"/>
      <rect class="st2" x="144.6" y="148.9" width="3.6" height="7.1"/>
      <rect class="st2" x="144.6" y="159.5" width="3.6" height="32"/>
      <rect class="st2" x="148.1" y="120.4" width="3.6" height="3.6"/>
      <rect class="st2" x="148.1" y="145.3" width="3.6" height="10.7"/>
      <rect class="st2" x="148.1" y="159.5" width="3.6" height="3.6"/>
      <rect class="st2" x="148.1" y="173.8" width="3.6" height="14.2"/>
      <rect class="st2" x="151.7" y="88.4" width="3.6" height="7.1"/>
      <rect class="st2" x="151.7" y="95.5" width="3.6" height="7.1"/>
      <rect class="st2" x="151.7" y="102.6" width="3.6" height="10.7"/>
      <rect class="st2" x="151.7" y="116.8" width="3.6" height="7.1"/>
      <rect class="st2" x="151.7" y="134.6" width="3.6" height="7.1"/>
      <rect class="st2" x="151.7" y="156" width="3.6" height="7.1"/>
      <rect class="st2" x="151.7" y="166.7" width="3.6" height="3.6"/>
      <rect class="st2" x="151.7" y="173.8" width="3.6" height="3.6"/>
      <rect class="st2" x="151.7" y="188" width="3.6" height="3.6"/>
      <rect class="st2" x="155.2" y="88.4" width="3.6" height="3.6"/>
      <rect class="st2" x="155.2" y="109.7" width="3.6" height="3.6"/>
      <rect class="st2" x="155.2" y="120.4" width="3.6" height="3.6"/>
      <rect class="st2" x="155.2" y="127.5" width="3.6" height="3.6"/>
      <rect class="st2" x="155.2" y="145.3" width="3.6" height="17.8"/>
      <rect class="st2" x="155.2" y="173.8" width="3.6" height="14.2"/>
      <rect class="st2" x="158.8" y="88.4" width="3.6" height="3.6"/>
      <rect class="st2" x="158.8" y="95.5" width="3.6" height="7.1"/>
      <rect class="st2" x="158.8" y="102.6" width="3.6" height="3.6"/>
      <rect class="st2" x="158.8" y="109.7" width="3.6" height="3.6"/>
      <rect class="st2" x="158.8" y="120.4" width="3.6" height="10.7"/>
      <rect class="st2" x="158.8" y="145.3" width="3.6" height="3.6"/>
      <rect class="st2" x="158.8" y="159.5" width="3.6" height="21.3"/>
      <rect class="st2" x="158.8" y="184.4" width="3.6" height="3.6"/>
      <rect class="st2" x="162.4" y="88.4" width="3.6" height="3.6"/>
      <rect class="st2" x="162.4" y="95.5" width="3.6" height="7.1"/>
      <rect class="st2" x="162.4" y="102.6" width="3.6" height="3.6"/>
      <rect class="st2" x="162.4" y="109.7" width="3.6" height="3.6"/>
      <rect class="st2" x="162.4" y="116.8" width="3.6" height="3.6"/>
      <rect class="st2" x="162.4" y="131.1" width="3.6" height="3.6"/>
      <rect class="st2" x="162.4" y="145.3" width="3.6" height="7.1"/>
      <rect class="st2" x="162.4" y="159.5" width="3.6" height="14.2"/>
      <rect class="st2" x="162.4" y="177.3" width="3.6" height="3.6"/>
      <rect class="st2" x="162.4" y="184.4" width="3.6" height="3.6"/>
      <rect class="st2" x="165.9" y="88.4" width="3.6" height="3.6"/>
      <rect class="st2" x="165.9" y="95.5" width="3.6" height="7.1"/>
      <rect class="st2" x="165.9" y="102.6" width="3.6" height="3.6"/>
      <rect class="st2" x="165.9" y="109.7" width="3.6" height="3.6"/>
      <rect class="st2" x="165.9" y="124" width="3.6" height="3.6"/>
      <rect class="st2" x="165.9" y="131.1" width="3.6" height="10.7"/>
      <rect class="st2" x="165.9" y="148.9" width="3.6" height="17.8"/>
      <rect class="st2" x="165.9" y="173.8" width="3.6" height="3.6"/>
      <rect class="st2" x="165.9" y="180.9" width="3.6" height="3.6"/>
      <rect class="st2" x="169.5" y="88.4" width="3.6" height="3.6"/>
      <rect class="st2" x="169.5" y="109.7" width="3.6" height="3.6"/>
      <rect class="st2" x="169.5" y="116.8" width="3.6" height="3.6"/>
      <rect class="st2" x="169.5" y="124" width="3.6" height="3.6"/>
      <rect class="st2" x="169.5" y="134.6" width="3.6" height="17.8"/>
      <rect class="st2" x="169.5" y="163.1" width="3.6" height="14.2"/>
      <rect class="st2" x="169.5" y="184.4" width="3.6" height="7.1"/>
      <rect class="st2" x="173" y="88.4" width="3.6" height="7.1"/>
      <rect class="st2" x="173" y="95.5" width="3.6" height="7.1"/>
      <rect class="st2" x="173" y="102.6" width="3.6" height="10.7"/>
      <rect class="st2" x="173" y="116.8" width="3.6" height="7.1"/>
      <rect class="st2" x="173" y="127.5" width="3.6" height="3.6"/>
      <rect class="st2" x="173" y="134.6" width="3.6" height="7.1"/>
      <rect class="st2" x="173" y="163.1" width="3.6" height="3.6"/>
      <rect class="st2" x="173" y="177.3" width="3.6" height="7.1"/>
    </g>
  </g>
</svg>